<svg width="201" height="134" viewBox="0 0 201 134" fill="none" xmlns="http://www.w3.org/2000/svg">
<path d="M104.659 55.0569C104.659 56.7871 103.265 58.1808 101.535 58.1808C99.8051 58.1808 98.4113 56.7871 98.4113 55.0569C98.4113 53.3267 99.757 51.9329 101.535 51.9329C103.314 51.981 104.659 53.3748 104.659 55.0569ZM91.779 61.3528V62.1218C91.779 62.1218 90.2891 60.1994 87.1171 60.1994C81.8785 60.1994 77.7933 64.1884 77.7933 69.7154C77.7933 75.1943 81.8304 79.2314 87.1171 79.2314C90.3372 79.2314 91.779 77.2609 91.779 77.2609V78.0779C91.779 78.4624 92.0673 78.7508 92.4518 78.7508H96.3447V60.68H92.4518C92.0673 60.68 91.779 61.0164 91.779 61.3528ZM91.779 72.9354C91.0581 73.9928 89.6162 74.9059 87.8861 74.9059C84.8102 74.9059 82.4552 72.9835 82.4552 69.7154C82.4552 66.4473 84.8102 64.5248 87.8861 64.5248C89.5682 64.5248 91.1061 65.486 91.779 66.4953V72.9354ZM99.2284 60.68H103.842V78.7508H99.2284V60.68ZM168.147 60.1994C164.975 60.1994 163.485 62.1218 163.485 62.1218V51.981H158.872V78.7508H162.765C163.149 78.7508 163.437 78.4144 163.437 78.0779V77.2609C163.437 77.2609 164.927 79.2314 168.099 79.2314C173.338 79.2314 177.423 75.1943 177.423 69.7154C177.423 64.2365 173.338 60.1994 168.147 60.1994ZM167.378 74.8579C165.6 74.8579 164.206 73.9447 163.485 72.8874V66.4473C164.206 65.486 165.744 64.4768 167.378 64.4768C170.454 64.4768 172.809 66.3992 172.809 69.6673C172.809 72.9354 170.454 74.8579 167.378 74.8579ZM156.469 68.0333V78.7988H151.855V68.5619C151.855 65.5822 150.894 64.3806 148.298 64.3806C146.905 64.3806 145.463 65.1016 144.55 66.1589V78.7508H139.936V60.68H143.588C143.973 60.68 144.261 61.0164 144.261 61.3528V62.1218C145.607 60.728 147.385 60.1994 149.163 60.1994C151.182 60.1994 152.864 60.7761 154.21 61.9296C155.844 63.2752 156.469 65.0054 156.469 68.0333ZM128.738 60.1994C125.566 60.1994 124.076 62.1218 124.076 62.1218V51.981H119.462V78.7508H123.355C123.739 78.7508 124.028 78.4144 124.028 78.0779V77.2609C124.028 77.2609 125.518 79.2314 128.69 79.2314C133.928 79.2314 138.013 75.1943 138.013 69.7154C138.061 64.2365 133.976 60.1994 128.738 60.1994ZM127.969 74.8579C126.19 74.8579 124.797 73.9447 124.076 72.8874V66.4473C124.797 65.486 126.335 64.4768 127.969 64.4768C131.045 64.4768 133.4 66.3992 133.4 69.6673C133.4 72.9354 131.045 74.8579 127.969 74.8579ZM115.473 60.1994C116.867 60.1994 117.588 60.4397 117.588 60.4397V64.7171C117.588 64.7171 113.743 63.4194 111.34 66.1589V78.7988H106.726V60.68H110.619C111.003 60.68 111.292 61.0164 111.292 61.3528V62.1218C112.157 61.1125 114.031 60.1994 115.473 60.1994ZM67.5564 77.1167C67.3161 76.54 67.0758 75.9152 66.8355 75.3865C66.451 74.5214 66.0665 73.7044 65.7301 72.9354L65.682 72.8874C62.3659 65.6783 58.8094 58.3731 55.0606 51.164L54.9165 50.8756C54.532 50.1547 54.1475 49.3857 53.763 48.6167C53.2824 47.7517 52.8018 46.8385 52.0328 45.9734C50.4949 44.051 48.2841 42.9937 45.9291 42.9937C43.5261 42.9937 41.3634 44.051 39.7774 45.8773C39.0564 46.7424 38.5278 47.6555 38.0472 48.5206C37.6627 49.2896 37.2782 50.0586 36.8937 50.7795L36.7495 51.0678C33.0489 58.2769 29.4443 65.5822 26.1281 72.7913L26.0801 72.8874C25.7436 73.6563 25.3592 74.4734 24.9747 75.3385C24.7344 75.8671 24.4941 76.4439 24.2538 77.0687C23.629 78.8469 23.4367 80.529 23.677 82.2592C24.2057 85.8638 26.6087 88.8916 29.9249 90.2373C31.1745 90.7659 32.4721 91.0062 33.8178 91.0062C34.2023 91.0062 34.6829 90.9582 35.0674 90.9101C36.6534 90.7179 38.2875 90.1892 39.8735 89.2761C41.844 88.1707 43.7183 86.5847 45.833 84.2778C47.9477 86.5847 49.8701 88.1707 51.7925 89.2761C53.3785 90.1892 55.0126 90.7179 56.5986 90.9101C56.9831 90.9582 57.4637 91.0062 57.8482 91.0062C59.1939 91.0062 60.5396 90.7659 61.7411 90.2373C65.1053 88.8916 67.4603 85.8157 67.989 82.2592C68.3734 80.5771 68.1812 78.895 67.5564 77.1167ZM45.8811 79.6159C43.2858 76.3477 41.6037 73.2719 41.0269 70.6766C40.7866 69.5712 40.7386 68.61 40.8827 67.7449C40.9789 66.9759 41.2672 66.3031 41.6517 65.7263C42.5649 64.4287 44.1028 63.6117 45.8811 63.6117C47.6593 63.6117 49.2453 64.3806 50.1104 65.7263C50.4949 66.3031 50.7832 66.9759 50.8794 67.7449C51.0235 68.61 50.9755 69.6193 50.7352 70.6766C50.1585 73.2238 48.4763 76.2997 45.8811 79.6159ZM65.0573 81.8747C64.7208 84.3739 63.0387 86.5366 60.6837 87.4978C59.5303 87.9784 58.2807 88.1226 57.0311 87.9784C55.8296 87.8342 54.6281 87.4498 53.3785 86.7288C51.6483 85.7676 49.9181 84.2778 47.8996 82.067C51.0716 78.1741 52.994 74.6176 53.7149 71.4456C54.0514 69.9557 54.0994 68.61 53.9552 67.3604C53.763 66.1589 53.3305 65.0535 52.6576 64.0923C51.1677 61.9296 48.6686 60.68 45.8811 60.68C43.0935 60.68 40.5944 61.9776 39.1045 64.0923C38.4317 65.0535 37.9991 66.1589 37.8069 67.3604C37.6146 68.61 37.6627 70.0037 38.0472 71.4456C38.7681 74.6176 40.7386 78.2221 43.8625 82.115C41.892 84.3258 40.1138 85.8157 38.3836 86.7769C37.134 87.4978 35.9325 87.8823 34.731 88.0265C33.4333 88.1707 32.1838 87.9784 31.0784 87.5459C28.7234 86.5847 27.0413 84.4219 26.7049 81.9228C26.5607 80.7213 26.6568 79.5197 27.1374 78.174C27.2816 77.6934 27.5219 77.2128 27.7622 76.6361C28.0986 75.8671 28.4831 75.0501 28.8676 74.2331L28.9156 74.137C32.2318 66.9759 35.7883 59.6707 39.489 52.5577L39.6332 52.2694C40.0177 51.5484 40.4021 50.7795 40.7866 50.0586C41.1711 49.2896 41.6037 48.5687 42.1323 47.9439C43.1416 46.7904 44.4873 46.1657 45.9772 46.1657C47.4671 46.1657 48.8128 46.7904 49.822 47.9439C50.3507 48.5687 50.7832 49.2896 51.1677 50.0586C51.5522 50.7795 51.9367 51.5484 52.3212 52.2694L52.4654 52.5577C56.118 59.7188 59.6745 67.024 62.9906 74.185V74.2331C63.3751 75.002 63.7116 75.8671 64.096 76.6361C64.3363 77.2128 64.5766 77.6934 64.7208 78.174C65.1053 79.4236 65.2495 80.6251 65.0573 81.8747Z" fill="#FF5A5F"/>
</svg>
