<svg width="151" height="150" viewBox="0 0 151 150" fill="none" xmlns="http://www.w3.org/2000/svg">
<g clip-path="url(#clip0_37_117)">
<path fill-rule="evenodd" clip-rule="evenodd" d="M93.5525 87.7369C84.8683 94.1579 72.2368 97.579 61.342 97.579C46.0789 97.579 32.3946 91.9474 21.9736 82.579C21.1841 81.8421 21.8683 80.8421 22.8683 81.4211C34.0789 87.9474 47.921 91.8421 62.2367 91.8421C71.8683 91.8421 82.4999 89.8421 92.2894 85.6842C93.7631 85.1053 94.9736 86.6842 93.5525 87.7369Z" fill="#FF9900"/>
<path fill-rule="evenodd" clip-rule="evenodd" d="M97.1843 83.579C96.079 82.158 89.8158 82.8948 87.0264 83.2632C86.1843 83.3685 86.0264 82.6316 86.8158 82.1053C91.8158 78.579 99.9737 79.6316 100.921 80.7895C101.868 81.9474 100.658 90.158 95.9737 94.0527C95.2369 94.6316 94.5527 94.3159 94.8685 93.5264C95.9211 90.8948 98.2895 85.0527 97.1843 83.579Z" fill="#FF9900"/>
<path fill-rule="evenodd" clip-rule="evenodd" d="M87.1842 57.3684V53.9474C87.1842 53.4211 87.5526 53.1053 88.0263 53.1053H103.289C103.763 53.1053 104.184 53.4737 104.184 53.9474V56.8421C104.184 57.3158 103.763 57.9474 103.026 59L95.1316 70.2632C98.0789 70.2106 101.184 70.6316 103.816 72.1053C104.395 72.4211 104.553 72.9474 104.605 73.4211V77.0527C104.605 77.579 104.079 78.1579 103.5 77.8421C98.8158 75.3684 92.5526 75.1053 87.3947 77.8948C86.8684 78.1579 86.2895 77.6316 86.2895 77.1053V73.6316C86.2895 73.1053 86.2895 72.1579 86.8684 71.3158L96.0263 58.2106H88.0789C87.6053 58.2106 87.1842 57.8421 87.1842 57.3684ZM31.5526 78.579H26.9211C26.5 78.5263 26.1316 78.2105 26.079 77.7895V54C26.079 53.5263 26.5 53.1579 26.9737 53.1579H31.2895C31.7632 53.1579 32.079 53.5263 32.1316 53.9474V57.0527H32.2368C33.3421 54.0527 35.5 52.6316 38.3421 52.6316C41.2368 52.6316 43.0789 54.0527 44.3421 57.0527C45.4474 54.0527 48.0263 52.6316 50.7632 52.6316C52.7105 52.6316 54.8158 53.4211 56.1316 55.2632C57.6053 57.2632 57.2895 60.1579 57.2895 62.7369V77.7895C57.2895 78.2632 56.8684 78.6316 56.3947 78.6316H51.8158C51.3421 78.579 50.9737 78.2105 50.9737 77.7895V65.1579C50.9737 64.1579 51.079 61.6316 50.8684 60.6842C50.5 59.1053 49.5 58.6316 48.1316 58.6316C47.0263 58.6316 45.8158 59.3684 45.3421 60.579C44.8684 61.7895 44.9211 63.7895 44.9211 65.1579V77.7895C44.9211 78.2632 44.5 78.6316 44.0263 78.6316H39.3947C38.9211 78.579 38.5526 78.2105 38.5526 77.7895V65.1579C38.5526 62.5263 38.9737 58.579 35.7105 58.579C32.3947 58.579 32.5 62.3684 32.5 65.1579V77.7895C32.4474 78.2105 32.0789 78.579 31.5526 78.579ZM117.342 52.6316C124.237 52.6316 127.974 58.5263 127.974 66.0527C127.974 73.3158 123.868 79.1053 117.342 79.1053C110.605 79.1053 106.921 73.2106 106.921 65.8421C106.868 58.4211 110.605 52.6316 117.342 52.6316ZM117.342 57.5263C113.921 57.5263 113.711 62.2106 113.711 65.1053C113.711 68 113.658 74.2106 117.289 74.2106C120.868 74.2106 121.079 69.2106 121.079 66.1579C121.079 64.1579 120.974 61.7369 120.395 59.8421C119.868 58.1579 118.816 57.5263 117.342 57.5263ZM136.868 78.579H132.237C131.763 78.5263 131.395 78.1579 131.395 77.7369V53.8948C131.447 53.4737 131.816 53.1053 132.289 53.1053H136.605C137.026 53.1053 137.342 53.4211 137.447 53.7895V57.4211H137.553C138.868 54.1579 140.658 52.6316 143.868 52.6316C145.921 52.6316 147.974 53.3684 149.289 55.4211C150.5 57.3158 150.5 60.5263 150.5 62.8421V77.8421C150.447 78.2632 150.079 78.579 149.605 78.579H144.974C144.553 78.5263 144.184 78.2105 144.132 77.8421V64.8948C144.132 62.2632 144.447 58.4737 141.237 58.4737C140.132 58.4737 139.079 59.2106 138.553 60.3685C137.921 61.8421 137.816 63.2632 137.816 64.8948V77.7369C137.763 78.2106 137.342 78.579 136.868 78.579ZM75.0263 67.2106C75.0263 69 75.0789 70.5263 74.1842 72.1579C73.4474 73.4737 72.2895 74.2632 70.9737 74.2632C69.1842 74.2632 68.1316 72.8948 68.1316 70.8948C68.1316 66.9474 71.6579 66.2105 75.0263 66.2105V67.2106ZM79.7105 78.5263C79.3947 78.7895 78.9737 78.8421 78.6053 78.6316C77.0789 77.3684 76.7632 76.7369 75.9211 75.5263C73.3947 78.1053 71.5526 78.8948 68.2895 78.8948C64.3947 78.8948 61.3421 76.4737 61.3421 71.6842C61.3421 67.8948 63.3947 65.3684 66.2895 64.1053C68.8158 63 72.3421 62.7895 75.0263 62.4737V61.8948C75.0263 60.7895 75.1316 59.4737 74.4474 58.5263C73.8684 57.6842 72.8158 57.3158 71.8684 57.3158C70.079 57.3158 68.5 58.2106 68.1316 60.1053C68.0263 60.5263 67.7632 60.9474 67.3421 60.9474L62.8684 60.4737C62.5 60.3684 62.079 60.1053 62.1842 59.5263C63.2369 54.0527 68.1316 52.4211 72.5526 52.4211C74.8158 52.4211 77.7632 53 79.5526 54.7369C81.8158 56.8421 81.6053 59.6842 81.6053 62.7369V69.9474C81.6053 72.1053 82.5 73.0527 83.3421 74.2632C83.6579 74.6842 83.7105 75.2105 83.3421 75.4737C82.3421 76.2632 80.6579 77.7369 79.7105 78.5263ZM14.2368 67.2106C14.2368 69 14.2895 70.5263 13.3947 72.1579C12.6579 73.4737 11.5 74.2632 10.1842 74.2632C8.39473 74.2632 7.34211 72.8948 7.34211 70.8948C7.34211 66.9474 10.8684 66.2105 14.2368 66.2105V67.2106ZM18.8684 78.5263C18.5526 78.7895 18.1316 78.8421 17.7632 78.6316C16.2368 77.3684 15.9211 76.7369 15.0789 75.5263C12.5526 78.1053 10.7105 78.8948 7.44737 78.8948C3.55263 78.8948 0.5 76.4737 0.5 71.6842C0.5 67.8948 2.55263 65.3684 5.44737 64.1053C7.97368 63 11.5 62.7895 14.1842 62.4737V61.8948C14.1842 60.7895 14.2895 59.4737 13.6053 58.5263C13.0263 57.6842 11.9737 57.3158 11.0263 57.3158C9.23684 57.3158 7.65789 58.2106 7.28947 60.1053C7.18421 60.5263 6.92105 60.9474 6.5 60.9474L2.02631 60.4737C1.65789 60.3684 1.23685 60.1053 1.34211 59.5263C2.39474 54.0527 7.28948 52.4211 11.7105 52.4211C13.9737 52.4211 16.9211 53 18.7105 54.7369C20.9737 56.8421 20.7632 59.6842 20.7632 62.7369V69.9474C20.7632 72.1053 21.6579 73.0527 22.5 74.2632C22.8158 74.6842 22.8684 75.2105 22.5 75.4737C21.5 76.2632 19.8158 77.7369 18.8684 78.5263Z" fill="black"/>
</g>
<defs>
<clipPath id="clip0_37_117">
<rect width="150" height="150" fill="white" transform="translate(0.5)"/>
</clipPath>
</defs>
</svg>
