<svg width="201" height="24" viewBox="0 0 201 24" fill="none" xmlns="http://www.w3.org/2000/svg">
<g clip-path="url(#clip0_37_126)">
<path d="M59.4224 7.05808V17.2752H61.9669C62.6163 17.2655 63.2571 17.1256 63.8515 16.8636C64.4459 16.6017 64.9818 16.223 65.4275 15.7501C66.3422 14.7805 66.8427 13.4917 66.8223 12.1582C66.8417 11.4958 66.7302 10.8361 66.4942 10.217C66.2581 9.59795 65.9023 9.03166 65.4469 8.5507C64.9994 8.0771 64.4598 7.70024 63.8613 7.44332C63.2628 7.18639 62.6181 7.05485 61.9669 7.05679H59.4237L59.4224 7.05808ZM61.9669 3.85461C66.7095 3.85461 70.2972 7.53354 70.2972 12.1582C70.2972 16.7828 66.7095 20.4825 61.9669 20.4825H56.355C56.3015 20.4819 56.2486 20.4706 56.1995 20.4495C56.1503 20.4284 56.1058 20.3978 56.0684 20.3594C56.0311 20.321 56.0016 20.2757 55.9818 20.2259C55.9619 20.1762 55.9521 20.123 55.9528 20.0694V4.2846C55.9528 4.05597 56.1331 3.8702 56.355 3.8702L61.9669 3.85461ZM82.5214 17.6311C84.6754 17.6376 86.6204 16.3113 87.4495 14.2704C87.8557 13.2733 87.9642 12.1797 87.762 11.122C87.5598 10.0644 87.0555 9.08815 86.3103 8.31167C85.5781 7.54795 84.6317 7.02459 83.5961 6.81074C82.5605 6.59689 81.4845 6.70261 80.5102 7.11394C78.5198 7.95573 77.2196 9.94719 77.2157 12.1582C77.2157 15.172 79.5864 17.6168 82.5214 17.6311ZM82.5227 3.47789C87.5144 3.47789 91.3305 7.41662 91.3305 12.1582C91.3305 16.8997 87.5144 20.8385 82.5214 20.8385C77.5297 20.8385 73.7461 16.9192 73.7461 12.1582C73.7461 7.39714 77.5635 3.47789 82.5227 3.47789ZM103.456 17.6311C106.392 17.6233 108.768 15.1759 108.766 12.1621C108.762 9.14567 106.381 6.70344 103.446 6.70214C100.508 6.70214 98.1258 9.14307 98.1219 12.1582C98.1219 13.6105 98.6837 15.0031 99.6841 16.0294C100.174 16.5351 100.76 16.9375 101.407 17.2126C102.055 17.4877 102.753 17.63 103.456 17.6311ZM103.455 3.47789C108.431 3.47789 112.247 7.39714 112.247 12.1582C112.247 16.9192 108.415 20.8385 103.455 20.8385C98.4956 20.8385 94.647 16.9192 94.647 12.1582C94.647 7.39714 98.4631 3.47789 103.455 3.47789ZM123.886 7.05808H120.298V11.4554H123.886C124.17 11.468 124.453 11.4222 124.718 11.321C124.983 11.2198 125.224 11.0653 125.428 10.8669C125.843 10.4642 126.079 9.90562 126.084 9.31844C126.095 9.02055 126.045 8.72362 125.938 8.44547C125.831 8.16732 125.669 7.91369 125.461 7.69982C125.258 7.48934 125.012 7.32385 124.741 7.214C124.47 7.10414 124.179 7.05236 123.886 7.06198V7.05808ZM116.827 4.2846C116.827 4.05597 117.009 3.8702 117.231 3.8702H123.986C127.206 3.8702 129.537 6.29294 129.537 9.33533C129.562 11.393 128.439 13.2832 126.647 14.2042L129.763 19.859C129.806 19.924 129.83 19.9997 129.833 20.0776C129.836 20.1556 129.817 20.2328 129.778 20.3007C129.741 20.3675 129.685 20.4221 129.617 20.458C129.55 20.4939 129.473 20.5097 129.397 20.5033H126.663C126.587 20.5044 126.512 20.484 126.448 20.4445C126.383 20.4049 126.331 20.3479 126.297 20.2799L123.294 14.6835H120.285V20.0564C120.286 20.1101 120.276 20.1634 120.257 20.2133C120.237 20.2632 120.208 20.3087 120.17 20.3472C120.133 20.3857 120.088 20.4165 120.039 20.4377C119.99 20.4589 119.937 20.4702 119.883 20.4708H117.249C117.195 20.4702 117.143 20.4589 117.093 20.4377C117.044 20.4165 116.999 20.3857 116.962 20.3472C116.925 20.3087 116.895 20.2632 116.875 20.2133C116.856 20.1634 116.846 20.1101 116.847 20.0564L116.829 4.2859L116.827 4.2846ZM138.583 7.13603V17.3544H141.127C141.776 17.3456 142.417 17.2065 143.011 16.9455C143.606 16.6844 144.142 16.3067 144.589 15.8345C145.504 14.8661 146.005 13.5782 145.986 12.2452C146.007 11.582 145.896 10.9213 145.661 10.301C145.425 9.68079 145.07 9.1133 144.614 8.63124C144.166 8.15685 143.626 7.77952 143.026 7.52257C142.426 7.26562 141.78 7.1345 141.128 7.13733L138.583 7.13603ZM141.127 3.92866C145.869 3.92866 149.457 7.61148 149.457 12.2452C149.457 16.879 145.869 20.5618 141.127 20.5618H135.532C135.478 20.5611 135.425 20.5498 135.376 20.5286C135.326 20.5074 135.282 20.4767 135.245 20.4382C135.207 20.3997 135.178 20.3542 135.158 20.3043C135.138 20.2544 135.128 20.201 135.129 20.1474V4.36384C135.129 4.13391 135.31 3.94814 135.532 3.94814L141.127 3.92866ZM160.04 7.99211L158.071 13.4559H162.004L160.04 7.99211ZM156.917 16.5438L155.628 20.1811C155.602 20.2667 155.549 20.3413 155.476 20.393C155.403 20.4448 155.315 20.4708 155.226 20.4669H152.431C152.36 20.4736 152.288 20.4609 152.223 20.4303C152.159 20.3997 152.104 20.3522 152.064 20.2929C152.023 20.2328 151.998 20.1633 151.992 20.0909C151.986 20.0186 151.999 19.9458 152.029 19.8798L158.067 4.11053C158.096 4.02737 158.15 3.95571 158.223 3.90646C158.295 3.85721 158.382 3.83307 158.47 3.83772H161.597C161.685 3.83278 161.772 3.85678 161.844 3.90605C161.917 3.95532 161.972 4.02714 162 4.11053L168.039 19.8798C168.069 19.9459 168.081 20.0187 168.075 20.0911C168.069 20.1635 168.044 20.233 168.003 20.2929C167.963 20.352 167.907 20.3992 167.843 20.4296C167.778 20.46 167.707 20.4724 167.636 20.4656H164.842C164.753 20.4695 164.665 20.4435 164.592 20.3917C164.519 20.34 164.466 20.2654 164.44 20.1799L163.151 16.5425H156.917V16.5438ZM171.279 8.34675C171.279 5.73565 173.477 3.47789 176.948 3.47789C178.817 3.4361 180.627 4.1361 181.983 5.42517C182.024 5.46427 182.057 5.51139 182.079 5.56366C182.102 5.61593 182.113 5.67224 182.113 5.72915C182.113 5.78606 182.102 5.84237 182.079 5.89464C182.057 5.94691 182.024 5.99403 181.983 6.03313L180.435 7.61148C180.398 7.64983 180.353 7.68032 180.304 7.70114C180.255 7.72197 180.202 7.7327 180.149 7.7327C180.096 7.7327 180.043 7.72197 179.994 7.70114C179.945 7.68032 179.901 7.64983 179.864 7.61148C179.135 6.9273 178.177 6.53965 177.178 6.52417C175.789 6.52417 174.763 7.35167 174.763 8.30648C174.763 11.393 182.967 9.61203 182.967 15.5513C182.964 18.5612 180.749 20.8385 176.833 20.8385C175.745 20.8496 174.667 20.6417 173.661 20.227C172.656 19.8124 171.744 19.1995 170.979 18.4248C170.938 18.3857 170.905 18.3386 170.883 18.2863C170.86 18.2341 170.849 18.1778 170.849 18.1208C170.849 18.0639 170.86 18.0076 170.883 17.9554C170.905 17.9031 170.938 17.856 170.979 17.8169L172.477 16.2788C172.514 16.2386 172.559 16.2065 172.609 16.1846C172.66 16.1626 172.714 16.1513 172.769 16.1513C172.824 16.1513 172.878 16.1626 172.928 16.1846C172.978 16.2065 173.023 16.2386 173.061 16.2788C174.003 17.214 175.272 17.7452 176.599 17.7597C178.334 17.7597 179.477 16.8088 179.477 15.6176C179.477 12.5297 171.277 14.312 171.277 8.37143M197.845 4.26381V10.5045H190.901V4.26381C190.901 4.21025 190.892 4.15707 190.872 4.10732C190.852 4.05756 190.822 4.01221 190.785 3.97385C190.748 3.93549 190.703 3.90487 190.654 3.88374C190.605 3.86262 190.552 3.85139 190.498 3.85071H187.864C187.811 3.85139 187.758 3.86262 187.709 3.88374C187.66 3.90487 187.615 3.93549 187.578 3.97385C187.54 4.01221 187.511 4.05756 187.491 4.10732C187.471 4.15707 187.462 4.21025 187.462 4.26381V20.0305C187.462 20.2591 187.644 20.4449 187.864 20.4449H190.498C190.719 20.4449 190.901 20.2591 190.901 20.0305V13.6911H197.84V20.0305C197.84 20.2591 198.022 20.4449 198.242 20.4449H200.876C201.098 20.4449 201.279 20.2591 201.279 20.0305V4.26381C201.279 4.21025 201.269 4.15707 201.249 4.10732C201.23 4.05756 201.2 4.01221 201.163 3.97385C201.126 3.93549 201.081 3.90487 201.032 3.88374C200.983 3.86262 200.93 3.85139 200.876 3.85071H198.242C198.135 3.85344 198.033 3.89833 197.959 3.97565C197.885 4.05298 197.844 4.15651 197.845 4.26381ZM41.1672 5.95519C39.3402 2.56465 35.7655 0.453683 31.878 0.466673H2.4651C2.26646 0.467481 2.07246 0.526788 1.90725 0.637205C1.74205 0.747622 1.61295 0.904267 1.53605 1.08762C1.46027 1.2698 1.44053 1.47048 1.47937 1.66396C1.5182 1.85744 1.61384 2.03491 1.75404 2.17363L8.16135 8.53901C8.72708 9.1028 9.49782 9.41847 10.2997 9.41847H31.0346C32.5125 9.40288 33.7205 10.5746 33.7361 12.0335C33.7517 13.4923 32.567 14.6874 31.0891 14.7017H16.794C16.5952 14.7018 16.4008 14.7605 16.2351 14.8705C16.0695 14.9804 15.9398 15.1368 15.8623 15.3201C15.7858 15.5025 15.7656 15.7036 15.8042 15.8976C15.8428 16.0916 15.9385 16.2696 16.079 16.4087L22.4902 22.7793C23.0595 23.3428 23.828 23.6584 24.6286 23.6574H31.0943C39.5063 23.6574 45.8669 14.7719 41.1672 5.95129" fill="#FF3008"/>
</g>
<defs>
<clipPath id="clip0_37_126">
<rect width="200" height="23.3871" fill="white" transform="translate(0.5 0.306458)"/>
</clipPath>
</defs>
</svg>
