<svg width="19" height="18" viewBox="0 0 19 18" fill="none" xmlns="http://www.w3.org/2000/svg">
<g id="ep:arrow-down">
<path id="Vector" d="M15.2681 5.99175L9.64532 11.4728L4.02257 5.99175C3.92211 5.89362 3.78725 5.83868 3.64682 5.83868C3.50639 5.83868 3.37152 5.89362 3.27107 5.99175C3.22243 6.03941 3.18378 6.0963 3.1574 6.15908C3.13102 6.22186 3.11743 6.28928 3.11743 6.35738C3.11743 6.42548 3.13102 6.49289 3.1574 6.55567C3.18378 6.61846 3.22243 6.67534 3.27107 6.723L9.25269 12.555C9.35774 12.6574 9.49863 12.7147 9.64532 12.7147C9.79201 12.7147 9.9329 12.6574 10.0379 12.555L16.0196 6.72413C16.0686 6.67643 16.1075 6.61941 16.1341 6.55642C16.1607 6.49343 16.1744 6.42575 16.1744 6.35738C16.1744 6.28901 16.1607 6.22133 16.1341 6.15834C16.1075 6.09535 16.0686 6.03832 16.0196 5.99063C15.9191 5.89249 15.7843 5.83755 15.6438 5.83755C15.5034 5.83755 15.3685 5.89249 15.2681 5.99063V5.99175Z" fill="black"/>
</g>
</svg>
