<svg width="205" height="36" viewBox="0 0 205 36" fill="none" xmlns="http://www.w3.org/2000/svg">
<path d="M10.3855 0.251412C10.5684 0.0894308 10.8042 0 11.0485 0H30.0907C30.3434 0 30.5867 0.0956527 30.7718 0.267728L38.7825 7.71773C39.4478 8.33642 39.01 9.45 38.1015 9.45H2.63725C1.71686 9.45 1.28522 8.31166 1.97421 7.70141L10.3855 0.251412Z" fill="#FFD573"/>
<path d="M1.16138 11.7742H39.484V30C39.484 32.7614 37.2454 35 34.484 35H6.16137C3.39995 35 1.16138 32.7614 1.16138 30V11.7742Z" fill="url(#paint0_linear_25_19)"/>
<rect x="25.5483" y="23.3871" width="9.29032" height="2.32258" rx="1.16129" fill="white"/>
<rect x="25.5483" y="28.0323" width="9.29032" height="2.32258" rx="1.16129" fill="white"/>
<path d="M60.4862 29.2663C59.2433 29.2663 58.1176 28.9467 57.109 28.3075C56.1076 27.6612 55.3122 26.7131 54.7227 25.4631C54.1403 24.206 53.8491 22.6648 53.8491 20.8395C53.8491 18.9645 54.1509 17.4055 54.7546 16.1626C55.3583 14.9126 56.1609 13.9787 57.1623 13.3608C58.1708 12.7358 59.2752 12.4233 60.4755 12.4233C61.3917 12.4233 62.1552 12.5795 62.766 12.892C63.3839 13.1974 63.8811 13.581 64.2575 14.0426C64.641 14.4972 64.9322 14.9446 65.1311 15.3849H65.2696V7.18182H69.7973V29H65.3228V26.3793H65.1311C64.918 26.8338 64.6161 27.2848 64.2255 27.7322C63.842 28.1726 63.3413 28.5384 62.7234 28.8295C62.1126 29.1207 61.3669 29.2663 60.4862 29.2663ZM61.9244 25.6548C62.6559 25.6548 63.2738 25.456 63.7781 25.0582C64.2894 24.6534 64.6801 24.0888 64.95 23.3643C65.2269 22.6399 65.3654 21.7912 65.3654 20.8182C65.3654 19.8452 65.2305 19 64.9606 18.2827C64.6907 17.5653 64.3001 17.0114 63.7887 16.6207C63.2774 16.2301 62.6559 16.0348 61.9244 16.0348C61.1786 16.0348 60.5501 16.2372 60.0387 16.642C59.5274 17.0469 59.1403 17.608 58.8775 18.3253C58.6147 19.0426 58.4833 19.8736 58.4833 20.8182C58.4833 21.7699 58.6147 22.6115 58.8775 23.343C59.1474 24.0675 59.5345 24.6357 60.0387 25.0476C60.5501 25.4524 61.1786 25.6548 61.9244 25.6548ZM80.986 29.3196C79.3028 29.3196 77.8539 28.9787 76.6394 28.2969C75.432 27.608 74.5016 26.6349 73.8482 25.3778C73.1948 24.1136 72.8681 22.6186 72.8681 20.8928C72.8681 19.2095 73.1948 17.7322 73.8482 16.4609C74.5016 15.1896 75.4214 14.1989 76.6074 13.4886C77.8006 12.7784 79.1998 12.4233 80.8049 12.4233C81.8844 12.4233 82.8894 12.5973 83.8198 12.9453C84.7573 13.2862 85.5741 13.8011 86.2701 14.4901C86.9732 15.179 87.5201 16.0455 87.9107 17.0895C88.3013 18.1264 88.4966 19.3409 88.4966 20.733V21.9794H74.6792V19.1669H84.2246C84.2246 18.5135 84.0826 17.9347 83.7985 17.4304C83.5144 16.9261 83.1202 16.532 82.616 16.2479C82.1188 15.9567 81.54 15.8111 80.8795 15.8111C80.1905 15.8111 79.5797 15.9709 79.0471 16.2905C78.5215 16.603 78.1096 17.0256 77.8113 17.5582C77.513 18.0838 77.3603 18.6697 77.3532 19.3161V21.9901C77.3532 22.7997 77.5023 23.4993 77.8006 24.0888C78.106 24.6783 78.5357 25.1328 79.0897 25.4524C79.6437 25.772 80.3006 25.9318 81.0606 25.9318C81.5648 25.9318 82.0265 25.8608 82.4455 25.7188C82.8645 25.5767 83.2232 25.3636 83.5215 25.0795C83.8198 24.7955 84.0471 24.4474 84.2033 24.0355L88.4008 24.3125C88.1877 25.321 87.7509 26.2017 87.0904 26.9545C86.437 27.7003 85.5918 28.2827 84.5549 28.7017C83.5251 29.1136 82.3354 29.3196 80.986 29.3196ZM105.073 17.3026L100.919 17.5582C100.848 17.2031 100.695 16.8835 100.46 16.5994C100.226 16.3082 99.9171 16.0774 99.5336 15.907C99.1572 15.7294 98.7062 15.6406 98.1806 15.6406C97.4775 15.6406 96.8844 15.7898 96.4015 16.0881C95.9185 16.3793 95.677 16.7699 95.677 17.2599C95.677 17.6506 95.8333 17.9808 96.1458 18.2507C96.4583 18.5206 96.9945 18.7372 97.7545 18.9006L100.716 19.4972C102.307 19.8239 103.493 20.3494 104.274 21.0739C105.056 21.7983 105.446 22.75 105.446 23.929C105.446 25.0014 105.13 25.9425 104.498 26.7521C103.873 27.5618 103.014 28.1939 101.92 28.6484C100.833 29.0959 99.5797 29.3196 98.1593 29.3196C95.9931 29.3196 94.2672 28.8686 92.9817 27.9666C91.7033 27.0575 90.954 25.8217 90.7339 24.2592L95.1976 24.0249C95.3326 24.6854 95.6593 25.1896 96.1778 25.5376C96.6962 25.8786 97.3603 26.049 98.1699 26.049C98.9654 26.049 99.6046 25.8963 100.088 25.5909C100.578 25.2784 100.826 24.8771 100.833 24.3871C100.826 23.9751 100.652 23.6378 100.311 23.375C99.9704 23.1051 99.4448 22.8991 98.7346 22.7571L95.9008 22.1925C94.3028 21.8729 93.1131 21.3189 92.3319 20.5305C91.5577 19.7422 91.1707 18.7372 91.1707 17.5156C91.1707 16.4645 91.4547 15.5589 92.0229 14.799C92.5982 14.0391 93.4043 13.4531 94.4413 13.0412C95.4853 12.6293 96.7069 12.4233 98.106 12.4233C100.173 12.4233 101.799 12.8601 102.985 13.7337C104.178 14.6072 104.874 15.7969 105.073 17.3026ZM112.842 19.5398V29H108.304V7.18182H112.715V15.5234H112.906C113.276 14.5575 113.872 13.8011 114.696 13.2543C115.52 12.7003 116.553 12.4233 117.796 12.4233C118.933 12.4233 119.923 12.6719 120.768 13.169C121.621 13.6591 122.281 14.3658 122.75 15.2891C123.226 16.2053 123.46 17.3026 123.453 18.581V29H118.915V19.3906C118.922 18.3821 118.666 17.5973 118.148 17.0362C117.636 16.4751 116.919 16.1946 115.996 16.1946C115.378 16.1946 114.831 16.326 114.355 16.5888C113.886 16.8516 113.517 17.2351 113.247 17.7393C112.984 18.2365 112.849 18.8366 112.842 19.5398ZM127.025 29V12.6364H131.563V29H127.025ZM129.305 10.527C128.63 10.527 128.051 10.3033 127.568 9.85582C127.092 9.40128 126.854 8.85795 126.854 8.22585C126.854 7.60085 127.092 7.06463 127.568 6.61719C128.051 6.16264 128.63 5.93537 129.305 5.93537C129.979 5.93537 130.555 6.16264 131.03 6.61719C131.513 7.06463 131.755 7.60085 131.755 8.22585C131.755 8.85795 131.513 9.40128 131.03 9.85582C130.555 10.3033 129.979 10.527 129.305 10.527ZM135.199 35.1364V12.6364H139.673V15.3849H139.875C140.074 14.9446 140.362 14.4972 140.738 14.0426C141.122 13.581 141.619 13.1974 142.23 12.892C142.848 12.5795 143.615 12.4233 144.531 12.4233C145.724 12.4233 146.825 12.7358 147.833 13.3608C148.842 13.9787 149.648 14.9126 150.252 16.1626C150.855 17.4055 151.157 18.9645 151.157 20.8395C151.157 22.6648 150.863 24.206 150.273 25.4631C149.691 26.7131 148.895 27.6612 147.887 28.3075C146.885 28.9467 145.763 29.2663 144.52 29.2663C143.64 29.2663 142.89 29.1207 142.272 28.8295C141.662 28.5384 141.161 28.1726 140.77 27.7322C140.38 27.2848 140.081 26.8338 139.875 26.3793H139.737V35.1364H135.199ZM139.641 20.8182C139.641 21.7912 139.776 22.6399 140.046 23.3643C140.316 24.0888 140.706 24.6534 141.218 25.0582C141.729 25.456 142.351 25.6548 143.082 25.6548C143.821 25.6548 144.446 25.4524 144.957 25.0476C145.468 24.6357 145.855 24.0675 146.118 23.343C146.388 22.6115 146.523 21.7699 146.523 20.8182C146.523 19.8736 146.392 19.0426 146.129 18.3253C145.866 17.608 145.479 17.0469 144.968 16.642C144.456 16.2372 143.828 16.0348 143.082 16.0348C142.343 16.0348 141.718 16.2301 141.207 16.6207C140.703 17.0114 140.316 17.5653 140.046 18.2827C139.776 19 139.641 19.8452 139.641 20.8182ZM154.183 35.1364V12.6364H158.657V15.3849H158.86C159.059 14.9446 159.346 14.4972 159.723 14.0426C160.106 13.581 160.603 13.1974 161.214 12.892C161.832 12.5795 162.599 12.4233 163.515 12.4233C164.708 12.4233 165.809 12.7358 166.818 13.3608C167.826 13.9787 168.632 14.9126 169.236 16.1626C169.84 17.4055 170.142 18.9645 170.142 20.8395C170.142 22.6648 169.847 24.206 169.257 25.4631C168.675 26.7131 167.88 27.6612 166.871 28.3075C165.87 28.9467 164.748 29.2663 163.505 29.2663C162.624 29.2663 161.875 29.1207 161.257 28.8295C160.646 28.5384 160.145 28.1726 159.755 27.7322C159.364 27.2848 159.066 26.8338 158.86 26.3793H158.721V35.1364H154.183ZM158.625 20.8182C158.625 21.7912 158.76 22.6399 159.03 23.3643C159.3 24.0888 159.691 24.6534 160.202 25.0582C160.713 25.456 161.335 25.6548 162.066 25.6548C162.805 25.6548 163.43 25.4524 163.941 25.0476C164.453 24.6357 164.84 24.0675 165.103 23.343C165.373 22.6115 165.507 21.7699 165.507 20.8182C165.507 19.8736 165.376 19.0426 165.113 18.3253C164.851 17.608 164.463 17.0469 163.952 16.642C163.441 16.2372 162.812 16.0348 162.066 16.0348C161.328 16.0348 160.703 16.2301 160.191 16.6207C159.687 17.0114 159.3 17.5653 159.03 18.2827C158.76 19 158.625 19.8452 158.625 20.8182ZM180.625 29.3196C178.941 29.3196 177.493 28.9787 176.278 28.2969C175.071 27.608 174.14 26.6349 173.487 25.3778C172.833 24.1136 172.507 22.6186 172.507 20.8928C172.507 19.2095 172.833 17.7322 173.487 16.4609C174.14 15.1896 175.06 14.1989 176.246 13.4886C177.439 12.7784 178.838 12.4233 180.444 12.4233C181.523 12.4233 182.528 12.5973 183.458 12.9453C184.396 13.2862 185.213 13.8011 185.909 14.4901C186.612 15.179 187.159 16.0455 187.549 17.0895C187.94 18.1264 188.135 19.3409 188.135 20.733V21.9794H174.318V19.1669H183.863C183.863 18.5135 183.721 17.9347 183.437 17.4304C183.153 16.9261 182.759 16.532 182.255 16.2479C181.757 15.9567 181.179 15.8111 180.518 15.8111C179.829 15.8111 179.218 15.9709 178.686 16.2905C178.16 16.603 177.748 17.0256 177.45 17.5582C177.152 18.0838 176.999 18.6697 176.992 19.3161V21.9901C176.992 22.7997 177.141 23.4993 177.439 24.0888C177.745 24.6783 178.174 25.1328 178.728 25.4524C179.282 25.772 179.939 25.9318 180.699 25.9318C181.204 25.9318 181.665 25.8608 182.084 25.7188C182.503 25.5767 182.862 25.3636 183.16 25.0795C183.458 24.7955 183.686 24.4474 183.842 24.0355L188.039 24.3125C187.826 25.321 187.39 26.2017 186.729 26.9545C186.076 27.7003 185.23 28.2827 184.194 28.7017C183.164 29.1136 181.974 29.3196 180.625 29.3196Z" fill="#08090D"/>
<path d="M188.958 9.15483V7.72727H195.105V9.15483H192.9V15H191.167V9.15483H188.958ZM195.963 7.72727H198.14L199.987 12.2301H200.072L201.919 7.72727H204.095V15H202.384V10.5327H202.323L200.576 14.9538H199.482L197.735 10.5078H197.675V15H195.963V7.72727Z" fill="#08090D"/>
<defs>
<linearGradient id="paint0_linear_25_19" x1="1.16138" y1="11.7742" x2="37.1614" y2="32.6774" gradientUnits="userSpaceOnUse">
<stop offset="0.191512" stop-color="#FFC743"/>
<stop offset="1" stop-color="#F5DEAC"/>
</linearGradient>
</defs>
</svg>
