<svg width="201" height="134" viewBox="0 0 201 134" fill="none" xmlns="http://www.w3.org/2000/svg">
<path fill-rule="evenodd" clip-rule="evenodd" d="M39.7972 64.8365C39.7972 56.8963 38.462 53.6047 34.7909 53.6047C31.5534 53.6047 29.9179 55.9122 29.9179 63.9205C29.9179 71.8266 31.1862 75.0843 34.9244 75.0843C38.2285 75.0843 39.7972 72.8106 39.7972 64.8365ZM23.5769 64.6331C23.5769 55.7085 29.6176 52.1796 34.9913 52.1796C40.7317 52.1796 46.1383 55.6749 46.1383 64.09C46.1383 73.0821 40.0976 76.5094 34.7238 76.5094C28.9837 76.5095 23.5769 72.7771 23.5769 64.6331ZM73.3203 65.2098L79.0273 64.9043C79.0273 60.7986 78.4938 59.3055 76.491 59.3055C74.7887 59.3055 73.4537 60.9343 73.3203 65.2098ZM68.0472 67.2118C68.0472 61.3075 72.3522 58.016 76.7578 58.016C81.3099 58.016 84.1666 60.3027 84.3291 66.2848C84.3325 66.4011 84.2394 66.4993 84.1245 66.4993H73.5299C73.415 66.4993 73.3222 66.5973 73.3249 66.7139C73.4743 72.1038 75.5342 73.5912 78.9272 73.5912C80.5834 73.5912 81.9186 73.2 83.0361 72.6961C83.0761 72.678 83.1209 72.6735 83.1637 72.6833C83.2065 72.6932 83.2448 72.7168 83.2727 72.7507L83.7164 73.2815C83.7834 73.3615 83.7826 73.4799 83.7118 73.556C82.4942 74.8615 80.0157 76.5095 76.7577 76.5095C70.9505 76.5095 68.0472 72.9804 68.0472 67.2118ZM136.773 67.4833C136.773 60.6288 135.472 59.3393 133.202 59.3393C131.1 59.3393 129.865 60.9005 129.865 66.7368C129.865 73.6932 130.966 75.1859 133.402 75.1859C135.405 75.1859 136.773 73.9984 136.773 67.4833ZM124.258 67.3138C124.258 60.7983 128.797 58.016 133.303 58.016C138.142 58.016 142.381 60.9681 142.381 67.1439C142.381 73.6591 137.908 76.5098 133.303 76.5098C128.463 76.5098 124.258 73.5231 124.258 67.3138ZM156.68 67.4833C156.68 60.6288 155.378 59.3393 153.109 59.3393C151.006 59.3393 149.771 60.9005 149.771 66.7368C149.771 73.6932 150.873 75.1859 153.309 75.1859C155.312 75.1859 156.68 73.9984 156.68 67.4833ZM144.164 67.3138C144.164 60.7983 148.703 58.016 153.209 58.016C158.048 58.016 162.287 60.9681 162.287 67.1439C162.287 73.6591 157.815 76.5098 153.209 76.5098C148.37 76.5098 144.164 73.5231 144.164 67.3138ZM98.0493 58.016C95.613 58.016 93.4102 59.136 91.6414 60.4252H91.5078L91.5734 58.2858C91.5787 58.1217 91.4396 57.9916 91.2795 58.0099L86.6091 58.5481C86.472 58.5638 86.368 58.6817 86.368 58.8222V75.8332C86.368 75.9819 86.4866 76.1022 86.6325 76.1022H91.4101C91.556 76.1022 91.6745 75.9819 91.6745 75.8332V61.613C92.4088 61.4432 93.6103 61.1719 94.7788 61.1719C96.3472 61.1719 97.0816 61.8166 97.0816 63.8864V75.8332C97.0816 75.9819 97.2002 76.1022 97.3461 76.1022H102.157C102.303 76.1022 102.422 75.9819 102.422 75.8332V62.5634C102.422 59.5092 100.886 58.016 98.0493 58.016ZM116.74 73.0821C116.206 73.2859 115.305 73.8289 113.936 73.8289C111.4 73.8289 110.065 72.0981 110.065 66.7708C110.065 61.1716 111.733 59.3733 114.137 59.3733C115.372 59.3733 116.172 60.0858 116.74 60.7983V73.0821ZM122.046 54.6906C122.046 52.9367 122.105 51.3252 122.136 50.6637C122.145 50.4702 121.984 50.3149 121.794 50.332L116.987 50.8869C116.847 50.8998 116.74 51.0189 116.74 51.1622V55.9123C116.74 57.1337 116.807 58.3892 116.807 58.3892C116.106 58.1855 115.171 58.016 114.27 58.016C109.064 58.016 104.591 60.8326 104.591 67.8907C104.591 74.0663 107.828 76.5095 111.133 76.5095C113.469 76.5095 115.338 75.5594 116.773 74.3041H116.907L116.839 76.177C116.831 76.3765 117.003 76.5343 117.197 76.5063L121.776 75.9865C121.931 75.9646 122.046 75.8296 122.046 75.6702V54.6906ZM174.69 58.016C172.755 58.016 170.852 59.5092 169.818 60.629H169.684L169.749 58.3486C169.754 58.1546 169.59 58.0002 169.4 58.0218L164.785 58.5484C164.648 58.5641 164.544 58.682 164.544 58.8227V75.7829C164.544 75.9593 164.685 76.1022 164.858 76.1022H169.537C169.71 76.1022 169.851 75.9592 169.851 75.7829V62.0203C170.318 61.5791 171.086 61.1378 171.686 61.1378C171.987 61.1378 172.187 61.2058 172.387 61.5791C173.022 62.6309 173.524 63.2389 174.957 63.2389C176.259 63.2389 177.423 62.1897 177.423 60.5611C177.423 58.8982 176.292 58.016 174.69 58.016ZM56.5733 75.1521C55.4384 75.1521 54.5375 74.643 53.9364 73.9305V61.5789C54.4706 61.3755 55.305 60.9681 56.6399 60.9681C59.1765 60.9681 60.6118 62.6646 60.6118 67.5171C60.6118 73.727 59.2098 75.1521 56.5733 75.1521ZM59.5436 58.0163C57.2072 58.0163 55.3386 59.1359 53.9364 60.3576H53.7696L53.8341 58.3272C53.8399 58.1421 53.683 57.9948 53.5024 58.0157L48.871 58.548C48.7336 58.5639 48.6299 58.682 48.6299 58.8226V83.393C48.6299 83.5575 48.7708 83.6859 48.9318 83.6675L53.6955 83.1202C53.8328 83.1046 53.9364 82.9865 53.9364 82.8459V78.2402C53.9364 77.0527 53.9032 76.1703 53.9032 76.1703C54.6375 76.3738 55.739 76.5094 56.4399 76.5094C62.0135 76.5094 66.0849 73.4215 66.0849 66.3636C66.0849 60.1539 62.7142 58.0163 59.5436 58.0163Z" fill="#147BD1"/>
</svg>
