<svg width="201" height="134" viewBox="0 0 201 134" fill="none" xmlns="http://www.w3.org/2000/svg">
<path d="M56.6535 53.3746C56.6283 53.1479 56.4272 53.0472 56.2764 53.0472C56.1256 53.0472 52.8331 52.7953 52.8331 52.7953C52.8331 52.7953 50.5458 50.5034 50.2694 50.2767C50.018 50.0249 49.5405 50.1004 49.3394 50.1508C49.3143 50.1508 48.8367 50.3019 48.0576 50.5538C47.2784 48.3123 45.9463 46.2722 43.5586 46.2722H43.3323C42.6789 45.4159 41.8243 45.0129 41.1205 45.0129C35.591 45.0129 32.9268 51.939 32.0974 55.465C29.9358 56.145 28.4027 56.5983 28.2267 56.6739C27.0203 57.0517 26.9951 57.0769 26.8443 58.2102C26.7187 59.0665 23.5769 83.4211 23.5769 83.4211L48.0324 88.0049L61.3033 85.1337C61.3284 85.0833 56.6786 53.6012 56.6535 53.3746ZM46.7003 50.9064C46.0971 51.0827 45.3682 51.3094 44.6393 51.5612V51.1079C44.6393 49.7478 44.4634 48.6397 44.1366 47.7582C45.3933 47.9093 46.1725 49.2945 46.7003 50.9064ZM42.6035 48.0352C42.9302 48.8915 43.1564 50.1004 43.1564 51.7627V52.0146C41.7992 52.4427 40.3665 52.8709 38.8836 53.3494C39.713 50.176 41.2965 48.6145 42.6035 48.0352ZM40.9949 46.4737C41.2462 46.4737 41.4976 46.5745 41.6986 46.7256C39.9141 47.5567 38.029 49.6471 37.2499 53.8783C36.0686 54.2561 34.9375 54.5835 33.8568 54.9361C34.7616 51.7123 37.0237 46.4737 40.9949 46.4737Z" fill="#95BF47"/>
<path d="M56.2765 52.9968C56.1257 52.9968 52.8331 52.7449 52.8331 52.7449C52.8331 52.7449 50.5459 50.453 50.2694 50.2264C50.1689 50.1256 50.0432 50.0753 49.9427 50.0753L48.1079 88.0049L61.3787 85.1337C61.3787 85.1337 56.7289 53.6012 56.7038 53.3746C56.6033 53.1479 56.4273 53.0472 56.2765 52.9968Z" fill="#5E8E3E"/>
<path d="M43.5586 60.351L41.95 65.2118C41.95 65.2118 40.4922 64.4311 38.758 64.4311C36.1692 64.4311 36.0435 66.0681 36.0435 66.4711C36.0435 68.6874 41.8244 69.5438 41.8244 74.7572C41.8244 78.8625 39.2355 81.5069 35.7419 81.5069C31.5194 81.5069 29.4081 78.8876 29.4081 78.8876L30.5391 75.1602C30.5391 75.1602 32.7509 77.0743 34.6109 77.0743C35.8424 77.0743 36.3451 76.1172 36.3451 75.412C36.3451 72.5157 31.6199 72.3897 31.6199 67.6045C31.6199 63.5999 34.4852 59.7214 40.2912 59.7214C42.4527 59.6962 43.5586 60.351 43.5586 60.351Z" fill="white"/>
<path d="M76.7859 69.4934C75.4538 68.7882 74.7752 68.1585 74.7752 67.3274C74.7752 66.2696 75.7303 65.5896 77.2132 65.5896C78.9474 65.5896 80.4806 66.2948 80.4806 66.2948L81.6871 62.5925C81.6871 62.5925 80.5812 61.7362 77.3137 61.7362C72.7644 61.7362 69.5975 64.3555 69.5975 68.0326C69.5975 70.123 71.0805 71.7097 73.0409 72.8431C74.6495 73.7246 75.2025 74.3794 75.2025 75.3365C75.2025 76.3187 74.3982 77.1246 72.9152 77.1246C70.7286 77.1246 68.6424 75.9913 68.6424 75.9913L67.3606 79.6936C67.3606 79.6936 69.2708 80.978 72.488 80.978C77.1629 80.978 80.556 78.661 80.556 74.5053C80.5058 72.2386 78.8218 70.6771 76.7859 69.4934ZM95.4354 61.6858C93.1231 61.6858 91.3134 62.794 89.9311 64.4563L89.8808 64.4311L91.8915 53.9538H86.6888L81.6117 80.6506H86.8144L88.5487 71.5334C89.2273 68.083 91.0118 65.9422 92.6707 65.9422C93.852 65.9422 94.3044 66.7482 94.3044 67.8815C94.3044 68.5867 94.2541 69.4934 94.0782 70.1986L92.1177 80.6506H97.3205L99.3564 69.8712C99.5826 68.7378 99.7334 67.3778 99.7334 66.4459C99.7083 63.4488 98.1751 61.6858 95.4354 61.6858ZM111.496 61.6858C105.213 61.6858 101.065 67.3526 101.065 73.6742C101.065 77.7039 103.554 80.978 108.229 80.978C114.387 80.978 118.534 75.4624 118.534 68.9897C118.559 65.237 116.397 61.6858 111.496 61.6858ZM108.932 76.9987C107.148 76.9987 106.419 75.4876 106.419 73.5735C106.419 70.5764 107.952 65.7155 110.792 65.7155C112.627 65.7155 113.256 67.3274 113.256 68.8637C113.256 72.0623 111.672 76.9987 108.932 76.9987ZM131.88 61.6858C128.361 61.6858 126.376 64.8089 126.376 64.8089H126.325L126.627 62.0132H122.002C121.776 63.9022 121.349 66.7985 120.947 68.9393L117.352 88.0552H122.555L124.013 80.3232H124.139C124.139 80.3232 125.219 81.0032 127.18 81.0032C133.313 81.0032 137.309 74.7068 137.309 68.36C137.284 64.834 135.7 61.6858 131.88 61.6858ZM126.903 77.0491C125.546 77.0491 124.742 76.2683 124.742 76.2683L125.596 71.4075C126.2 68.1334 127.909 65.9926 129.718 65.9926C131.327 65.9926 131.805 67.4785 131.805 68.8637C131.83 72.2386 129.819 77.0491 126.903 77.0491ZM144.724 54.2057C143.065 54.2057 141.733 55.5405 141.733 57.228C141.733 58.7643 142.713 59.8473 144.196 59.8473H144.246C145.88 59.8473 147.262 58.7391 147.287 56.825C147.312 55.2887 146.282 54.2057 144.724 54.2057ZM137.435 80.6254H142.637L146.156 62.0888H140.928M159.427 62.0636H155.808L155.984 61.2073C156.285 59.4191 157.341 57.8576 159.1 57.8576C160.03 57.8576 160.759 58.1347 160.759 58.1347L161.764 54.0294C161.764 54.0294 160.885 53.576 158.924 53.576C157.09 53.576 155.23 54.1049 153.822 55.3139C152.038 56.825 151.208 59.0162 150.806 61.2325L150.655 62.0888H148.217L147.438 66.043H149.876L147.111 80.6506H152.314L155.079 66.043H158.673L159.427 62.0636ZM171.969 62.0888C171.969 62.0888 168.702 70.3245 167.269 74.8327H167.219C167.118 73.372 165.937 62.0888 165.937 62.0888H160.457L163.599 79.0639C163.65 79.4417 163.624 79.6684 163.474 79.9203C162.87 81.104 161.84 82.2373 160.633 83.0685C159.653 83.7737 158.547 84.2522 157.668 84.5544L159.125 88.9871C160.181 88.7604 162.393 87.8789 164.228 86.1411C166.59 83.9248 168.802 80.4743 171.064 75.7898L177.423 62.0636H171.969V62.0888Z" fill="black"/>
</svg>
