<svg width="201" height="200" viewBox="0 0 201 200" fill="none" xmlns="http://www.w3.org/2000/svg">
<path d="M45.3772 75.3988H14.641C10.4079 75.3988 6.94165 78.8344 6.94165 83.0982V113.804C6.94165 118.068 10.4079 121.503 14.641 121.503H45.3466C49.6104 121.503 53.0459 118.037 53.0459 113.804V83.0982C53.0766 78.8344 49.641 75.3988 45.3772 75.3988ZM44.7024 110.706C44.7024 112.055 43.5981 113.129 42.2791 113.129H17.7699C16.4202 113.129 15.3466 112.025 15.3466 110.706V86.227C15.3466 84.8773 16.4509 83.8037 17.7699 83.8037H42.2484C43.5981 83.8037 44.6717 84.908 44.6717 86.227V110.706H44.7024ZM25.1012 104.724C24.3343 104.724 23.6901 104.11 23.6901 103.313V93.5583C23.6901 92.7914 24.3036 92.1473 25.1012 92.1473H34.8864C35.6533 92.1473 36.2975 92.7608 36.2975 93.5583V103.344C36.2975 104.11 35.684 104.755 34.8864 104.755L25.1012 104.724ZM65.3159 104.049H70.3466C70.592 106.902 72.5245 109.141 76.4202 109.141C79.9171 109.141 82.0337 107.423 82.0337 104.816C82.0337 102.393 80.3466 101.288 77.3404 100.583L73.4447 99.7546C69.2116 98.8344 66.0214 96.1043 66.0214 91.6565C66.0214 86.7485 70.3772 83.3743 76.0521 83.3743C82.0643 83.3743 85.9294 86.5338 86.2668 91.1963H81.3895C80.8067 89.0184 78.9969 87.7301 76.0521 87.7301C72.9539 87.7301 70.8067 89.4172 70.8067 91.5644C70.8067 93.7117 72.6472 95 75.8374 95.7055L79.7024 96.5338C83.9355 97.454 86.8496 100.031 86.8496 104.509C86.8496 110.215 82.5551 113.62 76.4509 113.62C69.549 113.589 65.7453 109.847 65.3159 104.049ZM104.856 121.534V113.19L105.193 109.54H104.856C103.69 112.178 101.267 113.62 97.9846 113.62C92.6778 113.62 88.7208 109.295 88.7208 102.669C88.7208 96.043 92.6778 91.7178 97.9846 91.7178C101.236 91.7178 103.537 93.2516 104.856 95.6135H105.193V92.1166H109.549V121.564H104.856V121.534ZM105.04 102.638C105.04 98.4049 102.432 95.9203 99.2729 95.9203C96.1134 95.9203 93.5061 98.4049 93.5061 102.638C93.5061 106.871 96.1134 109.356 99.2729 109.356C102.432 109.356 105.04 106.871 105.04 102.638ZM113.046 104.816V92.0859H117.739V104.387C117.739 107.73 119.334 109.325 122.034 109.325C125.316 109.325 127.463 106.963 127.463 103.313V92.0859H132.156V113.16H127.801V108.804H127.463C126.42 111.595 124.181 113.589 120.684 113.589C115.653 113.589 113.046 110.368 113.046 104.816ZM135.009 107.301C135.009 103.344 137.77 101.043 142.678 100.767L148.475 100.399V98.7424C148.475 96.7792 147.034 95.5829 144.488 95.5829C142.126 95.5829 140.745 96.7792 140.377 98.4663H135.684C136.175 94.1718 139.733 91.7178 144.488 91.7178C149.886 91.7178 153.169 94.0184 153.169 98.4663V113.19H148.813V109.295H148.475C147.494 111.902 145.439 113.62 141.482 113.62C137.678 113.589 135.009 111.043 135.009 107.301ZM148.475 104.693V103.589L143.751 103.926C141.205 104.08 140.04 105.031 140.04 106.933C140.04 108.528 141.359 109.693 143.199 109.693C146.543 109.663 148.475 107.546 148.475 104.693ZM156.666 113.19V92.1166H161.021V96.1657H161.359C161.972 93.4049 164.089 92.1166 167.218 92.1166H169.365V96.319H166.696C163.659 96.319 161.389 98.2822 161.389 102.055V113.16L156.666 113.19ZM190.837 103.497H174.825C175.07 107.362 177.801 109.54 180.807 109.54C183.353 109.54 184.948 108.497 185.868 106.779H190.531C189.242 111.074 185.5 113.558 180.776 113.558C174.549 113.558 170.193 108.896 170.193 102.607C170.193 96.319 174.672 91.6565 180.807 91.6565C186.972 91.6565 191.021 95.8896 191.021 101.166C190.991 102.239 190.899 102.761 190.837 103.497ZM186.328 100.245C186.175 97.3313 183.721 95.3374 180.776 95.3374C177.985 95.3374 175.623 97.1166 175.04 100.245H186.328Z" fill="black"/>
</svg>
