<svg width="26" height="25" viewBox="0 0 26 25" fill="none" xmlns="http://www.w3.org/2000/svg">
<circle cx="12.949" cy="12.5008" r="11.5538" stroke="black" stroke-width="1.5"/>
<path d="M17.2652 12.5008C17.2652 15.6201 16.7106 18.4082 15.8442 20.3885C15.4106 21.3797 14.9136 22.1348 14.3997 22.6316C13.8894 23.1249 13.4003 23.3308 12.949 23.3308C12.4976 23.3308 12.0085 23.1249 11.4982 22.6316C10.9844 22.1348 10.4874 21.3797 10.0537 20.3885C9.18733 18.4082 8.63269 15.6201 8.63269 12.5008C8.63269 9.38146 9.18733 6.59331 10.0537 4.61306C10.4874 3.62182 10.9844 2.86674 11.4982 2.36995C12.0085 1.87665 12.4976 1.67072 12.949 1.67072C13.4003 1.67072 13.8894 1.87665 14.3997 2.36995C14.9136 2.86674 15.4106 3.62182 15.8442 4.61306C16.7106 6.59331 17.2652 9.38146 17.2652 12.5008Z" stroke="black" stroke-width="1.5"/>
<path d="M12.949 24.25C6.56499 24.25 1.39519 19.0976 1.39519 12.7484C1.39519 11.9299 1.48205 11.4631 1.58542 11.2198C1.62486 11.127 1.65669 11.0911 1.6665 11.0815C1.66885 11.0811 1.67213 11.0807 1.67649 11.0803C1.76233 11.0729 1.98029 11.1104 2.39951 11.3292C2.79532 11.5357 3.26439 11.8453 3.82068 12.2322C4.00546 12.3607 4.19857 12.4969 4.3993 12.6385C5.37974 13.3299 6.54203 14.1497 7.80441 14.829C9.33119 15.6506 11.0763 16.3093 12.949 16.3093C14.8217 16.3093 16.5668 15.6506 18.0936 14.829C19.356 14.1496 20.5183 13.3299 21.4987 12.6384C21.6995 12.4969 21.8926 12.3607 22.0773 12.2322C22.6336 11.8453 23.1027 11.5357 23.4985 11.3292C23.9177 11.1104 24.1357 11.0729 24.2215 11.0803C24.2259 11.0807 24.2292 11.0811 24.2315 11.0815C24.2413 11.0911 24.2731 11.127 24.3126 11.2198C24.4159 11.4631 24.5028 11.9299 24.5028 12.7484C24.5028 19.0976 19.333 24.25 12.949 24.25Z" stroke="black" stroke-width="1.5"/>
</svg>
